<?xml version="1.0" encoding="utf-8"?>
<!-- Generator: Adobe Illustrator 25.0.1, SVG Export Plug-In . SVG Version: 6.00 Build 0)  -->
<svg version="1.1" id="Layer_1" xmlns="http://www.w3.org/2000/svg" xmlns:xlink="http://www.w3.org/1999/xlink" x="0px" y="0px"
	 viewBox="0 0 372.74 374.06" style="enable-background:new 0 0 372.74 374.06;" xml:space="preserve">
<style type="text/css">
	.st0{fill:#332F3E;}
	.st1{fill:url(#SVGID_1_);}
	.st2{fill:url(#SVGID_2_);}
</style>
<g>
	<circle class="st0" cx="186.37" cy="187.69" r="186.37"/>
	<g>
		<linearGradient id="SVGID_1_" gradientUnits="userSpaceOnUse" x1="-3.3376" y1="223.593" x2="449.5063" y2="20.0676">
			<stop  offset="0" style="stop-color:#00A79D"/>
			<stop  offset="1" style="stop-color:#68E76D"/>
		</linearGradient>
		<path class="st1" d="M246.7,138.33c0,22.97-12.83,42.93-31.72,53.13c-8.51,4.59-18.26,7.2-28.61,7.2
			c-10.35,0-20.09-2.61-28.61-7.2c-18.89-10.19-31.72-30.16-31.72-53.13c0-33.32,27.01-60.33,60.33-60.33S246.7,105.01,246.7,138.33
			"/>
		<linearGradient id="SVGID_2_" gradientUnits="userSpaceOnUse" x1="15.1174" y1="264.6552" x2="467.9612" y2="61.1299">
			<stop  offset="0" style="stop-color:#00A79D"/>
			<stop  offset="1" style="stop-color:#68E76D"/>
		</linearGradient>
		<path class="st2" d="M338.99,123.21c-8.34-19.73-20.29-37.44-35.49-52.65c-15.21-15.21-32.92-27.15-52.65-35.49
			c-20.43-8.64-42.12-13.02-64.48-13.02s-44.05,4.38-64.48,13.02c-19.73,8.34-37.44,20.28-52.65,35.49
			c-15.21,15.21-27.15,32.92-35.49,52.65c-8.64,20.43-13.02,42.12-13.02,64.48c0,22.35,4.38,44.05,13.02,64.48
			c8.32,19.68,20.22,37.35,35.38,52.53l0.06,0.05c0.02,0.02,0.04,0.04,0.06,0.06v0l0.34,0.33l0,0
			c15.13,15.05,32.73,26.87,52.31,35.16c20.43,8.64,42.12,13.02,64.48,13.02s44.05-4.38,64.48-13.02
			c19.46-8.23,36.95-19.96,52.03-34.87l0.63-0.63c0.03-0.03,0.06-0.06,0.09-0.09l0.15-0.15h0c15.09-15.16,26.95-32.79,35.25-52.41
			c8.64-20.43,13.02-42.12,13.02-64.48C352.02,165.33,347.63,143.63,338.99,123.21 M318.79,243.62
			c-5.91,13.98-13.91,26.79-23.83,38.21c-4.93-34.74-26.13-64.23-55.63-80.53c-4.26,3.58-8.92,6.75-13.93,9.46
			c-11.92,6.43-25.42,9.83-39.03,9.83c-13.61,0-27.1-3.4-39.03-9.83c-5.02-2.71-9.67-5.88-13.93-9.46
			c-29.51,16.29-50.71,45.79-55.63,80.53c-9.92-11.42-17.92-24.23-23.83-38.21c-7.49-17.71-11.29-36.53-11.29-55.93
			s3.8-38.23,11.29-55.93c7.23-17.12,17.6-32.48,30.8-45.69c13.2-13.2,28.57-23.56,45.68-30.8c17.71-7.49,36.53-11.29,55.93-11.29
			c19.41,0,38.22,3.8,55.93,11.29c17.11,7.23,32.48,17.6,45.68,30.8c13.2,13.2,23.56,28.57,30.8,45.69
			c7.49,17.71,11.29,36.53,11.29,55.93S326.28,225.91,318.79,243.62z"/>
	</g>
</g>
</svg>
