<?xml version="1.0" encoding="utf-8"?>
<!-- Generator: Adobe Illustrator 25.0.1, SVG Export Plug-In . SVG Version: 6.00 Build 0)  -->
<svg version="1.1" id="Layer_1" xmlns="http://www.w3.org/2000/svg" xmlns:xlink="http://www.w3.org/1999/xlink" x="0px" y="0px"
	 viewBox="0 0 645.64 438.71" style="enable-background:new 0 0 645.64 438.71;" xml:space="preserve">
<style type="text/css">
	.st0{fill:url(#SVGID_1_);}
	.st1{fill-rule:evenodd;clip-rule:evenodd;fill:url(#SVGID_2_);}
	.st2{fill-rule:evenodd;clip-rule:evenodd;fill:url(#SVGID_3_);}
	.st3{fill-rule:evenodd;clip-rule:evenodd;fill:url(#SVGID_4_);}
	.st4{fill-rule:evenodd;clip-rule:evenodd;fill:url(#SVGID_5_);}
	.st5{fill:#332F3E;}
	.st6{fill-rule:evenodd;clip-rule:evenodd;fill:#332F3E;}
</style>
<g>
	<g>
		<g>
			<path class="st5" d="M307.41,313.16c-4.49-4.27-9.8-7.67-15.92-10.19c-6.12-2.53-12.83-3.79-20.13-3.79
				c-7.3,0-14.04,1.26-20.22,3.79c-6.18,2.53-11.51,5.96-16,10.28c-4.49,4.32-8,9.38-10.53,15.16c-2.53,5.79-3.79,11.93-3.79,18.45
				v0.34c0,6.51,1.23,12.63,3.71,18.36c2.47,5.73,5.95,10.75,10.45,15.08c4.49,4.33,9.8,7.72,15.92,10.19
				c6.12,2.47,12.83,3.71,20.13,3.71c7.3,0,14.04-1.26,20.22-3.79c6.18-2.53,11.51-5.95,16-10.28c4.49-4.32,8-9.38,10.53-15.16
				c2.53-5.78,3.79-11.93,3.79-18.45v-0.34c0-6.51-1.24-12.64-3.71-18.36C315.38,322.43,311.9,317.43,307.41,313.16z M290.39,347.19
				c0,2.67-0.45,5.24-1.35,7.69c-0.9,2.45-2.16,4.6-3.79,6.43c-1.63,1.84-3.62,3.29-5.98,4.34c-2.36,1.06-5,1.59-7.92,1.59
				c-2.81,0-5.39-0.56-7.75-1.67c-2.36-1.11-4.41-2.59-6.15-4.43c-1.74-1.84-3.09-3.98-4.04-6.43c-0.96-2.45-1.43-5.07-1.43-7.85
				v-0.33c0-2.67,0.45-5.23,1.35-7.68c0.9-2.45,2.16-4.6,3.79-6.43c1.63-1.84,3.62-3.29,5.98-4.35c2.36-1.06,5-1.59,7.92-1.59
				c2.81,0,5.39,0.56,7.75,1.67c2.36,1.12,4.41,2.59,6.15,4.43c1.74,1.84,3.09,3.98,4.04,6.43c0.95,2.45,1.43,5.07,1.43,7.85V347.19
				z M98.34,331.3c-3.82-2.8-8.45-5.19-13.9-7.15c-5.45-1.96-11.54-3.67-18.28-5.13c-4.04-0.89-7.39-1.76-10.02-2.61
				c-2.64-0.84-4.72-1.68-6.23-2.52c-1.52-0.84-2.58-1.77-3.2-2.78c-0.62-1.01-0.93-2.19-0.93-3.53v-0.34
				c0-2.13,0.98-3.92,2.95-5.38c1.96-1.46,4.91-2.19,8.84-2.19c5.28,0,10.75,0.99,16.43,2.95c5.67,1.97,11.2,4.86,16.59,8.68
				l16.34-23.15c-6.4-5.2-13.56-9.12-21.48-11.78c-7.92-2.66-16.93-3.99-27.04-3.99c-7.08,0-13.42,0.93-19.04,2.77
				c-5.62,1.85-10.42,4.46-14.4,7.82c-3.99,3.36-7.02,7.34-9.1,11.94c-2.08,4.6-3.12,9.64-3.12,15.14v0.33
				c0,6.05,1.15,11.13,3.45,15.22c2.3,4.09,5.45,7.51,9.43,10.26c3.99,2.75,8.68,4.99,14.07,6.73s11.23,3.33,17.52,4.79
				c4.04,0.9,7.33,1.77,9.86,2.61c2.53,0.84,4.55,1.71,6.06,2.61c1.52,0.9,2.55,1.82,3.12,2.77c0.56,0.95,0.84,2.05,0.84,3.28V359
				c0,2.58-1.15,4.57-3.45,5.97c-2.3,1.4-5.64,2.1-10.02,2.1c-13.7,0-26.45-4.72-38.24-14.15L7.2,374.7
				c7.3,6.55,15.69,11.47,25.19,14.75c9.49,3.27,19.51,4.91,30.07,4.91c7.19,0,13.7-0.87,19.54-2.61
				c5.84-1.74,10.84-4.26,14.99-7.57c4.15-3.31,7.38-7.32,9.69-12.02c2.3-4.71,3.45-10.09,3.45-16.14v-0.34
				c0-5.49-1.01-10.23-3.03-14.21C105.08,337.49,102.16,334.1,98.34,331.3z M205.34,311.81c-3.7-4.04-7.98-7.16-12.86-9.35
				s-10-3.29-15.38-3.29c-3.36,0-6.41,0.39-9.16,1.18c-2.75,0.79-5.21,1.83-7.39,3.12c-2.19,1.29-4.17,2.78-5.97,4.46
				c-1.79,1.68-3.47,3.48-5.04,5.39V301.2h-32.18v118.1h32.18v-38.07c1.46,1.68,3.08,3.34,4.87,4.97c1.79,1.63,3.81,3.03,6.05,4.21
				c2.24,1.18,4.73,2.13,7.48,2.86c2.74,0.73,5.85,1.09,9.33,1.09c5.38,0,10.5-1.09,15.38-3.29c4.87-2.19,9.13-5.33,12.77-9.43
				c3.64-4.1,6.55-9.1,8.74-14.99c2.18-5.9,3.28-12.55,3.28-19.96v-0.34c0-7.3-1.09-13.87-3.28-19.71
				C211.98,320.8,209.04,315.86,205.34,311.81z M185.94,346.85c0,6.18-1.79,11.18-5.37,14.99c-3.58,3.82-7.99,5.73-13.25,5.73
				c-2.57,0-4.98-0.51-7.21-1.52c-2.24-1.01-4.19-2.44-5.87-4.3c-1.68-1.85-2.99-4.04-3.94-6.57s-1.42-5.31-1.42-8.34v-0.34
				c0-3.03,0.47-5.78,1.42-8.25c0.95-2.47,2.26-4.63,3.94-6.49c1.68-1.85,3.63-3.29,5.87-4.3c2.24-1.01,4.64-1.52,7.21-1.52
				c5.25,0,9.67,1.91,13.25,5.73c3.58,3.82,5.37,8.76,5.37,14.83V346.85z M507.88,292.94h33.53v-23.59h-33.53V292.94z
				 M637.18,329.92c-1.85-6.01-4.66-11.29-8.42-15.84c-3.76-4.55-8.54-8.17-14.32-10.87c-5.79-2.7-12.61-4.04-20.47-4.04
				c-6.74,0-12.92,1.24-18.53,3.71c-5.62,2.47-10.47,5.87-14.57,10.19c-4.1,4.33-7.27,9.38-9.52,15.16
				c-2.25,5.79-3.37,11.99-3.37,18.62v0.34c0,7.08,1.21,13.54,3.62,19.37c2.41,5.84,5.78,10.81,10.11,14.91
				c4.32,4.1,9.46,7.3,15.41,9.6c5.95,2.3,12.52,3.45,19.71,3.45c9.1,0,16.87-1.68,23.33-5.05c6.46-3.37,11.88-7.86,16.26-13.48
				l-17.69-14.66c-3.26,3.26-6.49,5.62-9.69,7.08c-3.2,1.46-6.71,2.19-10.53,2.19c-5.05,0-9.29-1.23-12.72-3.71
				c-3.43-2.47-5.76-6.23-6.99-11.29h60.99c0.11-1.12,0.17-2.25,0.17-3.37v-3.2C639.96,342.3,639.03,335.93,637.18,329.92z
				 M578.3,339.27c0.9-5.05,2.7-9.07,5.39-12.05c2.7-2.97,6.18-4.46,10.45-4.46c4.38,0,7.97,1.49,10.78,4.46
				c2.81,2.98,4.49,6.99,5.05,12.05H578.3z M508.56,392.34h32.18V301.2h-32.18V392.34z M477.99,330.68
				c5.25-2.25,9.58-5.48,12.99-9.69c3.41-4.21,5.11-9.74,5.11-16.59v-0.34c0-4.04-0.67-7.64-2.02-10.78
				c-1.34-3.14-3.2-5.9-5.55-8.25c-3.48-3.48-7.85-6.12-13.12-7.92c-5.27-1.79-11.61-2.7-19.01-2.7h-60.38v117.93h60.82
				c14.15,0,25.13-2.86,32.94-8.59c7.8-5.73,11.71-13.7,11.71-23.92v-0.34c0-7.97-2.11-14.18-6.34-18.62
				C490.92,336.44,485.2,333.04,477.99,330.68z M427.86,300.69h21.23c4.94,0,8.65,0.87,11.12,2.61c2.47,1.74,3.71,4.24,3.71,7.5
				v0.34c0,3.48-1.32,6.07-3.96,7.75c-2.64,1.68-6.49,2.53-11.54,2.53h-20.55V300.69z M468.8,355.28c0,3.48-1.35,6.15-4.04,8
				c-2.7,1.85-6.57,2.78-11.62,2.78h-25.27v-21.73h24.93c5.5,0,9.54,0.96,12.13,2.86c2.58,1.91,3.88,4.49,3.88,7.75V355.28z
				 M366.03,278.12h-32.18v23.08h-10.78v25.78h10.78v37.06c0,10.9,2.71,18.64,8.13,23.25c5.42,4.61,12.98,6.91,22.69,6.91
				c4.5,0,8.6-0.48,12.31-1.43c3.71-0.95,7.02-2.22,9.94-3.79v-25.1c-1.91,0.9-3.88,1.63-5.9,2.19c-2.02,0.56-4.1,0.84-6.23,0.84
				c-2.92,0-5.11-0.7-6.57-2.11c-1.46-1.4-2.19-3.73-2.19-6.99v-30.83h21.23V301.2h-21.23V278.12z"/>
		</g>
	</g>
	<g>
		<path class="st6" d="M435.78,147.63v92.03h-83.16l66.99-66.99C426.94,165.34,432.33,156.78,435.78,147.63L435.78,147.63z"/>
		<path class="st6" d="M435.78,147.63v92.03h-83.16l66.99-66.99C426.94,165.34,432.33,156.78,435.78,147.63L435.78,147.63z"/>
		<path class="st6" d="M336.03,16.89l-17.78,17.78l-69.14,69.14c-8.16,8.16-12.23,18.92-12.24,29.7c0,10.77,4.08,21.54,12.24,29.7h0
			c8.16,8.16,18.92,12.24,29.7,12.24c10.77,0,21.54-4.08,29.7-12.24l50.54-50.54c5.68-5.68,14.89-5.68,20.58,0
			c5.68,5.68,5.68,14.89,0,20.58l-50.54,50.54c-13.84,13.84-32.06,20.75-50.27,20.76c-18.21,0-36.44-6.92-50.27-20.76h0
			c-1.06-1.06-2.07-2.15-3.05-3.25c17.02,31.86,49.04,54.5,86.62,58.5l17.78-17.78l69.14-69.14c8.16-8.16,12.23-18.92,12.24-29.7
			c0-10.77-4.08-21.54-12.24-29.7l0,0c-8.16-8.16-18.92-12.23-29.7-12.23c-10.77,0-21.54,4.08-29.7,12.23l-50.54,50.54
			c-5.68,5.68-14.89,5.68-20.58,0c-5.68-5.68-5.68-14.9,0-20.58l50.54-50.54c13.84-13.84,32.06-20.75,50.27-20.76
			c18.21,0,36.44,6.92,50.27,20.76l0,0c1.06,1.06,2.07,2.14,3.04,3.25C405.62,43.53,373.61,20.89,336.03,16.89z"/>
		<path class="st6" d="M228.53,83.23l61.79-61.79c-36.73,11.62-65.23,41.71-74.64,79.37C218.96,94.47,223.24,88.53,228.53,83.23z"/>
	</g>
</g>
</svg>
