<?xml version="1.0" encoding="utf-8"?>
<!-- Generator: Adobe Illustrator 25.0.1, SVG Export Plug-In . SVG Version: 6.00 Build 0)  -->
<svg version="1.1" id="Layer_1" xmlns="http://www.w3.org/2000/svg" xmlns:xlink="http://www.w3.org/1999/xlink" x="0px" y="0px"
	 viewBox="0 0 372.74 298" style="enable-background:new 0 0 372.74 298;" xml:space="preserve">
<style type="text/css">
	.st0{fill:url(#SVGID_1_);}
	.st1{fill:url(#SVGID_2_);}
	.st2{fill:url(#SVGID_3_);}
</style>
<g>
	<linearGradient id="SVGID_1_" gradientUnits="userSpaceOnUse" x1="0" y1="27.091" x2="372.6635" y2="27.091">
		<stop  offset="0" style="stop-color:#00A79D"/>
		<stop  offset="1" style="stop-color:#68E76D"/>
	</linearGradient>
	<path class="st0" d="M345.57,54.18H27.09C12.12,54.18,0,42.07,0,27.09S12.12,0,27.09,0h318.48c14.98,0,27.09,12.12,27.09,27.09
		S360.55,54.18,345.57,54.18z"/>
	<linearGradient id="SVGID_2_" gradientUnits="userSpaceOnUse" x1="0" y1="149.0004" x2="372.6635" y2="149.0004">
		<stop  offset="0" style="stop-color:#00A79D"/>
		<stop  offset="1" style="stop-color:#68E76D"/>
	</linearGradient>
	<path class="st1" d="M345.57,176.09H27.09C12.12,176.09,0,163.98,0,149s12.12-27.09,27.09-27.09h318.48
		c14.98,0,27.09,12.12,27.09,27.09S360.55,176.09,345.57,176.09z"/>
	<linearGradient id="SVGID_3_" gradientUnits="userSpaceOnUse" x1="0" y1="270.9098" x2="372.6635" y2="270.9098">
		<stop  offset="0" style="stop-color:#00A79D"/>
		<stop  offset="1" style="stop-color:#68E76D"/>
	</linearGradient>
	<path class="st2" d="M345.57,298H27.09C12.12,298,0,285.89,0,270.91c0-14.98,12.12-27.09,27.09-27.09h318.48
		c14.98,0,27.09,12.12,27.09,27.09C372.66,285.89,360.55,298,345.57,298z"/>
</g>
</svg>
