<svg id="Layer_1" data-name="Layer 1" xmlns="http://www.w3.org/2000/svg" viewBox="0 0 284.89 270.95"><defs><style>.cls-1{fill:#68e76d;}.cls-2{fill:#332f3e;fill-rule:evenodd;}</style></defs><polygon class="cls-1" points="142.45 0 186.47 89.19 284.89 103.49 213.67 172.92 230.48 270.95 142.45 224.67 54.41 270.95 71.22 172.92 0 103.49 98.43 89.19 142.45 0"/><path class="cls-2" d="M201.83,159.92v49.67H157l36.15-36.15a38.14,38.14,0,0,0,8.72-13.52Z"/><path class="cls-2" d="M201.83,159.92v49.67H157l36.15-36.15a38.14,38.14,0,0,0,8.72-13.52Z"/><path class="cls-2" d="M148,89.36,138.41,99,101.1,136.27a22.73,22.73,0,0,0,0,32h0a22.73,22.73,0,0,0,32.05,0l27.27-27.27a7.85,7.85,0,0,1,11.11,11.1l-27.28,27.28a38.46,38.46,0,0,1-54.26,0h0c-.57-.57-1.12-1.16-1.64-1.76a60.28,60.28,0,0,0,46.74,31.57l9.6-9.59L182,162.33a22.73,22.73,0,0,0,0-32.05h0a22.75,22.75,0,0,0-32.05,0l-27.27,27.27a7.85,7.85,0,0,1-11.11-11.1l27.28-27.27a38.43,38.43,0,0,1,54.26,0h0c.57.57,1.11,1.15,1.64,1.75A60.32,60.32,0,0,0,148,89.36Z"/><path class="cls-2" d="M90,125.17l33.35-33.35a60.39,60.39,0,0,0-40.28,42.83A38,38,0,0,1,90,125.17Z"/></svg>