<?xml version="1.0" encoding="utf-8"?>
<!-- Generator: Adobe Illustrator 25.0.1, SVG Export Plug-In . SVG Version: 6.00 Build 0)  -->
<svg version="1.1" id="Layer_1" xmlns="http://www.w3.org/2000/svg" xmlns:xlink="http://www.w3.org/1999/xlink" x="0px" y="0px"
	 viewBox="0 0 994.35 254.97" style="enable-background:new 0 0 994.35 254.97;" xml:space="preserve">
<style type="text/css">
	.st0{fill:url(#SVGID_1_);}
	.st1{fill-rule:evenodd;clip-rule:evenodd;fill:url(#SVGID_2_);}
	.st2{fill-rule:evenodd;clip-rule:evenodd;fill:url(#SVGID_3_);}
	.st3{fill-rule:evenodd;clip-rule:evenodd;fill:url(#SVGID_4_);}
	.st4{fill-rule:evenodd;clip-rule:evenodd;fill:url(#SVGID_5_);}
</style>
<g>
	<g>
		<g>
			<linearGradient id="SVGID_1_" gradientUnits="userSpaceOnUse" x1="-14.7851" y1="181.1478" x2="957.0969" y2="119.5953">
				<stop  offset="0" style="stop-color:#00A79D"/>
				<stop  offset="1" style="stop-color:#68E76D"/>
			</linearGradient>
			<path class="st0" d="M516.04,110.94c-4.04-4.41-8.71-7.82-14.04-10.21s-10.92-3.59-16.79-3.59c-3.67,0-7,0.43-10,1.29
				c-3,0.86-5.69,1.99-8.07,3.4c-2.39,1.41-4.56,3.04-6.52,4.87c-1.96,1.84-3.79,3.8-5.5,5.89V99.35H420v128.93h35.13v-41.57
				c1.59,1.84,3.36,3.65,5.32,5.43c1.96,1.78,4.16,3.31,6.61,4.6c2.45,1.29,5.17,2.33,8.17,3.13c2.99,0.8,6.39,1.2,10.18,1.2
				c5.87,0,11.46-1.2,16.79-3.59c5.32-2.39,9.97-5.82,13.94-10.3c3.97-4.47,7.16-9.93,9.54-16.37s3.58-13.7,3.58-21.79v-0.37
				c0-7.97-1.19-15.14-3.58-21.52C523.29,120.75,520.08,115.35,516.04,110.94z M494.86,149.19c0,6.75-1.95,12.2-5.86,16.37
				c-3.91,4.17-8.73,6.25-14.46,6.25c-2.81,0-5.43-0.55-7.87-1.66s-4.58-2.67-6.41-4.69s-3.26-4.41-4.3-7.17
				c-1.04-2.76-1.55-5.79-1.55-9.1v-0.37c0-3.31,0.52-6.31,1.55-9.01c1.04-2.7,2.47-5.06,4.3-7.08c1.83-2.02,3.97-3.59,6.41-4.69
				c2.44-1.1,5.07-1.66,7.87-1.66c5.74,0,10.56,2.09,14.46,6.25c3.91,4.17,5.86,9.56,5.86,16.19V149.19z M399.22,132.21
				c-4.17-3.06-9.23-5.66-15.17-7.81c-5.95-2.14-12.6-4.01-19.96-5.6c-4.41-0.98-8.06-1.93-10.94-2.85
				c-2.88-0.92-5.15-1.83-6.81-2.75c-1.66-0.92-2.82-1.93-3.49-3.03c-0.68-1.1-1.01-2.39-1.01-3.85v-0.37
				c0-2.32,1.07-4.28,3.22-5.87c2.14-1.59,5.36-2.39,9.66-2.39c5.76,0,11.74,1.07,17.93,3.22c6.19,2.15,12.23,5.31,18.12,9.47
				l17.84-25.28c-6.99-5.67-14.81-9.96-23.45-12.86c-8.64-2.9-18.48-4.35-29.52-4.35c-7.72,0-14.65,1.01-20.78,3.03
				c-6.13,2.02-11.37,4.87-15.73,8.54c-4.35,3.67-7.66,8.02-9.93,13.04c-2.27,5.02-3.4,10.53-3.4,16.52v0.37
				c0,6.61,1.26,12.15,3.77,16.62c2.51,4.47,5.95,8.2,10.3,11.2c4.35,3,9.47,5.45,15.36,7.35c5.89,1.9,12.26,3.64,19.13,5.23
				c4.41,0.98,8,1.93,10.76,2.85c2.76,0.92,4.97,1.87,6.62,2.84c1.66,0.98,2.79,1.99,3.4,3.03c0.61,1.04,0.92,2.24,0.92,3.58v0.37
				c0,2.82-1.26,4.99-3.77,6.52c-2.51,1.53-6.16,2.29-10.94,2.29c-14.96,0-28.88-5.15-41.75-15.45l-19.86,23.78
				c7.97,7.16,17.13,12.52,27.5,16.1c10.36,3.58,21.3,5.37,32.83,5.37c7.85,0,14.96-0.95,21.34-2.84c6.37-1.9,11.83-4.65,16.37-8.26
				c4.53-3.61,8.06-7.99,10.58-13.13c2.51-5.14,3.77-11.02,3.77-17.62v-0.37c0-6-1.1-11.17-3.31-15.51
				C406.58,138.97,403.39,135.27,399.22,132.21z M627.47,112.41c-4.91-4.66-10.7-8.37-17.38-11.13c-6.68-2.76-14.01-4.14-21.98-4.14
				c-7.97,0-15.33,1.38-22.07,4.14c-6.75,2.76-12.57,6.5-17.47,11.22c-4.91,4.72-8.74,10.24-11.5,16.55
				c-2.76,6.32-4.14,13.03-4.14,20.14v0.37c0,7.11,1.35,13.79,4.05,20.05c2.7,6.25,6.5,11.74,11.4,16.46
				c4.9,4.72,10.7,8.43,17.38,11.13c6.68,2.7,14.01,4.05,21.98,4.05c7.97,0,15.33-1.38,22.07-4.14c6.74-2.76,12.57-6.5,17.47-11.22
				c4.9-4.72,8.74-10.24,11.5-16.55c2.76-6.31,4.14-13.03,4.14-20.14v-0.37c0-7.11-1.35-13.79-4.05-20.05
				C636.18,122.52,632.37,117.07,627.47,112.41z M608.89,149.56c0,2.92-0.49,5.72-1.47,8.39c-0.98,2.68-2.36,5.02-4.14,7.02
				c-1.78,2.01-3.95,3.59-6.53,4.74s-5.46,1.73-8.64,1.73c-3.07,0-5.89-0.61-8.46-1.82c-2.57-1.22-4.81-2.83-6.71-4.83
				c-1.9-2.01-3.37-4.35-4.41-7.02c-1.04-2.67-1.56-5.54-1.56-8.58v-0.37c0-2.92,0.49-5.71,1.47-8.39c0.98-2.68,2.36-5.02,4.14-7.02
				c1.78-2.01,3.96-3.59,6.53-4.75c2.58-1.16,5.46-1.73,8.64-1.73c3.06,0,5.89,0.61,8.46,1.83c2.58,1.22,4.81,2.83,6.71,4.83
				c1.9,2.01,3.37,4.35,4.41,7.02c1.04,2.67,1.56,5.53,1.56,8.57V149.56z M846.34,90.34h36.6V64.59h-36.6V90.34z M987.5,130.71
				c-2.02-6.56-5.09-12.32-9.2-17.29c-4.11-4.97-9.32-8.92-15.63-11.86c-6.32-2.94-13.77-4.41-22.35-4.41
				c-7.36,0-14.1,1.35-20.23,4.05c-6.13,2.7-11.43,6.41-15.91,11.13c-4.48,4.72-7.94,10.24-10.39,16.55
				c-2.45,6.32-3.68,13.09-3.68,20.32v0.37c0,7.72,1.32,14.78,3.95,21.15c2.64,6.38,6.31,11.8,11.04,16.28
				c4.72,4.48,10.33,7.97,16.83,10.48c6.5,2.51,13.67,3.77,21.52,3.77c9.93,0,18.42-1.84,25.47-5.52
				c7.05-3.68,12.97-8.58,17.75-14.71l-19.31-16c-3.56,3.56-7.08,6.13-10.58,7.73c-3.49,1.59-7.33,2.39-11.5,2.39
				c-5.52,0-10.15-1.35-13.89-4.05c-3.74-2.7-6.29-6.81-7.63-12.32h66.58c0.12-1.22,0.18-2.45,0.18-3.68v-3.5
				C990.54,144.23,989.53,137.27,987.5,130.71z M923.22,140.92c0.98-5.52,2.94-9.9,5.89-13.15c2.94-3.25,6.74-4.87,11.4-4.87
				c4.78,0,8.71,1.63,11.77,4.87c3.06,3.25,4.9,7.63,5.52,13.15H923.22z M847.08,198.85h35.13v-99.5h-35.13V198.85z M691.48,74.15
				h-35.13v25.2h-11.77v28.14h11.77v40.46c0,11.89,2.96,20.36,8.87,25.38c5.91,5.03,14.17,7.54,24.78,7.54
				c4.91,0,9.39-0.52,13.44-1.56c4.05-1.04,7.66-2.42,10.85-4.14v-27.41c-2.09,0.98-4.23,1.78-6.44,2.39
				c-2.21,0.62-4.48,0.92-6.81,0.92c-3.19,0-5.58-0.76-7.17-2.3c-1.59-1.53-2.39-4.08-2.39-7.63v-33.66h23.17V99.35h-23.17V74.15z
				 M813.71,131.54c5.73-2.45,10.46-5.98,14.18-10.58c3.72-4.6,5.58-10.64,5.58-18.12v-0.37c0-4.41-0.74-8.34-2.21-11.77
				c-1.47-3.43-3.49-6.44-6.06-9.01c-3.8-3.8-8.57-6.68-14.32-8.64c-5.75-1.96-12.67-2.94-20.75-2.94h-65.92v128.75h66.4
				c15.45,0,27.43-3.13,35.96-9.38c8.52-6.25,12.78-14.96,12.78-26.12v-0.37c0-8.71-2.31-15.48-6.92-20.32
				C827.82,137.82,821.58,134.11,813.71,131.54z M758.98,98.8h23.17c5.39,0,9.44,0.95,12.14,2.85c2.7,1.9,4.05,4.63,4.05,8.18v0.37
				c0,3.8-1.44,6.62-4.32,8.46c-2.88,1.84-7.08,2.76-12.6,2.76h-22.44V98.8z M803.67,158.39c0,3.8-1.47,6.71-4.41,8.74
				c-2.94,2.02-7.17,3.04-12.69,3.04h-27.59v-23.73h27.22c6.01,0,10.42,1.04,13.24,3.13c2.82,2.09,4.23,4.91,4.23,8.46V158.39z"/>
		</g>
	</g>
	<g>
		<linearGradient id="SVGID_2_" gradientUnits="userSpaceOnUse" x1="-12.6312" y1="215.1131" x2="959.2504" y2="153.5606">
			<stop  offset="0" style="stop-color:#00A79D"/>
			<stop  offset="1" style="stop-color:#68E76D"/>
		</linearGradient>
		<path class="st1" d="M244.1,148.61v100.48h-90.79l73.13-73.13C234.45,167.95,240.34,158.6,244.1,148.61L244.1,148.61z"/>
		<linearGradient id="SVGID_3_" gradientUnits="userSpaceOnUse" x1="-12.6312" y1="215.1131" x2="959.2504" y2="153.5606">
			<stop  offset="0" style="stop-color:#00A79D"/>
			<stop  offset="1" style="stop-color:#68E76D"/>
		</linearGradient>
		<path class="st2" d="M244.1,148.61v100.48h-90.79l73.13-73.13C234.45,167.95,240.34,158.6,244.1,148.61L244.1,148.61z"/>
		<linearGradient id="SVGID_4_" gradientUnits="userSpaceOnUse" x1="-17.6424" y1="135.9882" x2="954.2392" y2="74.4357">
			<stop  offset="0" style="stop-color:#00A79D"/>
			<stop  offset="1" style="stop-color:#68E76D"/>
		</linearGradient>
		<path class="st3" d="M135.2,5.87l-19.41,19.41l-75.49,75.49c-8.9,8.9-13.36,20.66-13.36,32.42c0,11.76,4.45,23.52,13.36,32.42h0
			c8.9,8.91,20.66,13.36,32.42,13.36c11.76,0,23.52-4.45,32.42-13.36l55.17-55.17c6.2-6.2,16.26-6.2,22.46,0
			c6.2,6.2,6.2,16.26,0,22.46l-55.17,55.17c-15.11,15.11-35,22.66-54.88,22.66c-19.88,0-39.78-7.56-54.88-22.66h0
			c-1.16-1.16-2.26-2.34-3.33-3.55c18.59,34.78,53.54,59.5,94.57,63.87l19.41-19.41l75.49-75.49c8.9-8.91,13.36-20.66,13.36-32.42
			c0-11.76-4.45-23.52-13.36-32.42l0,0c-8.9-8.9-20.66-13.36-32.42-13.36c-11.76,0-23.52,4.45-32.42,13.36l-55.17,55.17
			c-6.2,6.2-16.26,6.2-22.46,0c-6.2-6.2-6.2-16.26,0-22.46l55.18-55.17c15.11-15.11,35-22.66,54.88-22.66
			c19.88,0,39.78,7.55,54.88,22.66l0,0c1.15,1.15,2.26,2.34,3.32,3.55C211.18,34.96,176.23,10.24,135.2,5.87z"/>
		<linearGradient id="SVGID_5_" gradientUnits="userSpaceOnUse" x1="-22.5549" y1="58.4232" x2="949.3267" y2="-3.1293">
			<stop  offset="0" style="stop-color:#00A79D"/>
			<stop  offset="1" style="stop-color:#68E76D"/>
		</linearGradient>
		<path class="st4" d="M17.84,78.31L85.3,10.85C45.21,23.54,14.08,56.39,3.82,97.5C7.39,90.58,12.06,84.09,17.84,78.31z"/>
	</g>
</g>
</svg>
