<svg id="Layer_1" data-name="Layer 1" xmlns="http://www.w3.org/2000/svg" xmlns:xlink="http://www.w3.org/1999/xlink" viewBox="0 0 252.54 252.77"><defs><style>.cls-1{fill:url(#linear-gradient);}.cls-2{fill:url(#linear-gradient-2);}.cls-3{fill:url(#linear-gradient-3);}.cls-4{fill:url(#linear-gradient-4);}.cls-5{fill:url(#linear-gradient-5);}</style><linearGradient id="linear-gradient" x1="-1185.75" y1="208.93" x2="385.17" y2="110.06" gradientUnits="userSpaceOnUse"><stop offset="0" stop-color="#00a79d"/><stop offset="1" stop-color="#68e76d"/></linearGradient><linearGradient id="linear-gradient-2" x1="-1191.09" y1="124.14" x2="379.83" y2="25.27" xlink:href="#linear-gradient"/><linearGradient id="linear-gradient-3" x1="-1181.09" y1="283" x2="389.83" y2="184.13" xlink:href="#linear-gradient"/><linearGradient id="linear-gradient-4" x1="-1180.41" y1="293.84" x2="390.51" y2="194.97" xlink:href="#linear-gradient"/><linearGradient id="linear-gradient-5" x1="-1190.41" y1="134.92" x2="380.51" y2="36.05" xlink:href="#linear-gradient"/></defs><g id="eidbeD"><path class="cls-1" d="M126.09,112.4q41.52,0,83,0c5.88,0,10.37,2.25,13.29,7.42,4.77,8.43-1,19.46-10.6,20.39-1.17.11-2.35.19-3.52.19q-82.16,0-164.32,0c-5.75,0-10.52-1.61-13.74-6.7a13.92,13.92,0,0,1,11.05-21.26c3.26-.15,6.54,0,9.81,0Z"/><path class="cls-2" d="M62.72.6c6.2,0,12.42-.31,18.59.09,6.59.42,11.91,6.42,12.19,12.93A14,14,0,0,1,82.57,28a22.47,22.47,0,0,1-4.49.42c-8.38,0-16.76,0-25.15,0-15,0-24.8,9.84-24.8,24.91,0,8.88,0,17.77,0,26.66A14.07,14.07,0,0,1,14.25,93.73C7,93.85.21,87.78.13,80.48,0,69.16-.22,57.82.5,46.54,1.92,24.23,20.72,4.29,42.91,1.22,49.44.32,56.1.38,62.7,0Z"/><path class="cls-3" d="M63.75,252.77c-7.18-.43-14.48-.19-21.53-1.4A50.9,50.9,0,0,1,.11,202c-.18-9.72-.1-19.45,0-29.17a13.93,13.93,0,0,1,14.12-13.72A13.89,13.89,0,0,1,28.13,173c0,9.14,0,18.27,0,27.41,0,13.49,9.51,23.48,23,23.84,9,.24,18.11,0,27.16.09,7.51.05,12.84,3.84,14.71,10.27,2.52,8.64-4.09,17.47-13.38,17.72-5.28.14-10.57,0-15.85,0Z"/><path class="cls-4" d="M252.54,188.48c-.46,7.43-.22,15-1.51,22.26a50.55,50.55,0,0,1-47.26,41.46c-10.46.47-21,.27-31.43.1a13.71,13.71,0,0,1-13.54-13.24c-.28-7.67,4.89-14,12.69-14.42,9.27-.5,18.59-.27,27.89-.29,4.16,0,8.17-.52,11.91-2.53,8.25-4.44,12.61-11.33,12.75-20.69s0-18.61,0-27.91c0-7,5.38-13.27,12-14,7.68-.85,14.12,3.57,15.8,10.9a13.52,13.52,0,0,1,.25,3c0,5.11,0,10.22,0,15.34Z"/><path class="cls-5" d="M189.58.34c8.87,0,17.73-.27,26.42,2.33C236.48,8.8,251.89,29,252.09,50.36c.1,9.81,0,19.61,0,29.42a14,14,0,0,1-28,.13c-.07-9.47.06-18.95,0-28.42a22.77,22.77,0,0,0-17.33-22.25,31.14,31.14,0,0,0-7.21-.81c-8.81-.09-17.61.05-26.41-.06-9.1-.13-15.27-7.2-14.18-16.07.85-6.94,6.86-11.83,14.83-12C179,.27,184.3.34,189.58.34Z"/></g></svg>