<svg id="Layer_1" data-name="Layer 1" xmlns="http://www.w3.org/2000/svg" xmlns:xlink="http://www.w3.org/1999/xlink" viewBox="0 0 252.43 252.4"><defs><style>.cls-1{fill:url(#linear-gradient);}.cls-2{fill:url(#linear-gradient-2);}</style><linearGradient id="linear-gradient" x1="-322.09" y1="154.43" x2="1597.78" y2="33.59" gradientUnits="userSpaceOnUse"><stop offset="0" stop-color="#00a79d"/><stop offset="1" stop-color="#68e76d"/></linearGradient><linearGradient id="linear-gradient-2" x1="-322.09" y1="154.42" x2="1597.78" y2="33.59" xlink:href="#linear-gradient"/></defs><g id="maCpMM"><path class="cls-1" d="M126.25,0c71.56.23,126.6,58.64,126.17,127.15-.42,69-57,125.39-126.31,125.25C55.76,252.26-.42,195.78,0,125.06.41,56.47,56.1.12,126.25,0ZM36,126.16a90.16,90.16,0,1,0,90.19-90.1A90.19,90.19,0,0,0,36,126.16Z"/><path class="cls-2" d="M126.22,198.34A72.18,72.18,0,0,1,54,126.21c0-39.75,32.62-72.31,72.25-72.13a72.13,72.13,0,0,1,0,144.26Zm-9.08-27.17c0,3.41,0,6.32,0,9.23a9,9,0,0,0,9.06,8.87,8.86,8.86,0,0,0,8.93-9,49.73,49.73,0,0,0,0-6.8c-.36-2.86.76-4.17,3.34-5.41,10.57-5.06,16.3-17.17,14.09-29.08a26.9,26.9,0,0,0-23.34-21.51,48.49,48.49,0,0,1-4.83-.51,9,9,0,0,1,1.83-17.81c5.83-.11,11.66,0,17.5,0,5.58,0,9.46-3.71,9.5-8.9s-3.86-9-9.56-9.09c-2.74,0-5.47,0-8.47,0,0-3.06,0-5.87,0-8.68,0-5.31-3.78-9.26-8.82-9.33a9.06,9.06,0,0,0-9.19,9.26c0,2.67-.08,5.35,0,8a2.91,2.91,0,0,1-2,3.27,26.95,26.95,0,0,0,10,51.47,15.39,15.39,0,0,1,4.06.66,9,9,0,0,1,5.85,9.8,8.75,8.75,0,0,1-8.31,7.52c-5.66.16-11.34,0-17,.11a16.56,16.56,0,0,0-4.55.58,9,9,0,0,0-6.08,9.43,8.81,8.81,0,0,0,8,7.85C110.37,171.33,113.6,171.17,117.14,171.17Z"/></g></svg>