<?xml version="1.0" standalone="no"?>
<!DOCTYPE svg PUBLIC "-//W3C//DTD SVG 20010904//EN"
 "http://www.w3.org/TR/2001/REC-SVG-20010904/DTD/svg10.dtd">
<svg version="1.0" xmlns="http://www.w3.org/2000/svg"
 width="552.000000pt" height="552.000000pt" viewBox="0 0 552.000000 552.000000"
 preserveAspectRatio="xMidYMid meet">
<metadata>
Created by potrace 1.14, written by Peter Selinger 2001-2017
</metadata>
<g transform="translate(0.000000,552.000000) scale(0.100000,-0.100000)"
fill="#000000" stroke="none">
<path d="M1912 4412 c-606 -609 -1116 -1125 -1132 -1147 -16 -22 -34 -45 -39
-51 -44 -53 -131 -259 -156 -369 -26 -116 -24 -331 6 -450 5 -22 11 -47 13
-56 3 -9 18 -52 36 -95 77 -193 209 -357 380 -474 62 -41 198 -109 255 -126
67 -20 128 -34 169 -41 65 -10 269 -9 321 1 22 4 53 10 68 12 15 2 37 8 47 14
11 6 20 9 20 6 0 -8 143 50 195 79 131 73 191 128 852 788 707 707 726 723
823 742 233 43 446 -138 434 -369 -7 -147 12 -124 -738 -872 -642 -641 -790
-784 -814 -784 -6 0 -12 -4 -14 -9 -5 -16 -190 -127 -280 -169 -131 -62 -295
-116 -413 -136 -16 -3 -41 -8 -55 -10 -81 -16 -121 -19 -275 -19 -93 -1 -188
2 -210 6 -22 4 -56 9 -75 11 -20 3 -47 7 -60 10 -14 3 -36 8 -50 10 -32 6
-135 35 -170 49 -8 3 -33 11 -55 18 -73 22 -283 127 -352 177 -17 12 -36 22
-41 22 -6 0 -12 3 -14 8 -2 4 -21 21 -44 37 -52 38 -166 138 -215 190 -21 22
-39 35 -39 29 0 -6 7 -17 15 -24 8 -7 15 -16 15 -21 0 -18 80 -145 130 -206 6
-7 10 -15 10 -18 0 -6 77 -110 105 -141 6 -7 26 -31 45 -55 49 -62 265 -277
325 -325 27 -21 58 -47 69 -56 11 -10 38 -30 60 -45 23 -15 43 -31 46 -34 12
-16 215 -141 302 -188 104 -55 318 -153 318 -145 0 2 12 -4 27 -13 15 -10 27
-16 28 -14 0 2 52 -13 115 -33 63 -19 130 -38 149 -41 19 -3 38 -8 43 -11 5
-3 19 -7 31 -9 12 -2 60 -10 107 -19 47 -9 101 -18 120 -20 19 -3 36 -5 38 -6
23 -17 134 90 1133 1090 602 602 1110 1115 1130 1140 54 69 104 149 134 215
34 73 66 165 58 165 -3 0 0 6 6 14 6 8 11 18 10 22 -1 5 1 25 4 44 4 19 10 49
13 65 6 36 7 207 0 255 -7 53 -16 103 -22 122 -3 9 -7 25 -9 36 -8 42 -68 180
-106 245 -66 112 -141 199 -238 277 -24 19 -49 40 -55 45 -57 49 -316 166
-348 157 -4 -1 -19 2 -32 8 -74 28 -308 30 -426 4 -14 -3 -35 -7 -48 -10 -96
-20 -268 -102 -372 -178 -30 -22 -356 -341 -725 -709 -766 -766 -724 -732
-886 -732 -76 1 -93 4 -151 33 -196 96 -265 333 -150 516 14 22 324 339 691
705 673 673 708 707 771 751 19 13 37 27 40 30 10 13 99 70 108 70 6 0 12 4
14 9 5 14 213 115 308 149 94 34 267 80 327 86 21 2 61 7 90 11 149 20 401 6
561 -31 43 -10 82 -18 87 -20 16 -3 168 -54 190 -63 237 -102 425 -225 583
-381 40 -40 74 -71 76 -69 8 8 -193 320 -239 373 -6 6 -30 36 -55 66 -50 62
-185 204 -244 259 -22 20 -47 43 -57 52 -76 73 -325 255 -409 299 -14 7 -27
16 -30 20 -8 11 -310 157 -380 184 -227 87 -462 146 -675 169 l-50 6 -1103
-1107z"/>
<path d="M1814 5383 c-16 -7 -60 -24 -99 -39 -116 -44 -313 -141 -420 -206
-102 -63 -262 -173 -280 -193 -5 -6 -32 -28 -60 -50 -149 -115 -428 -428 -547
-615 -19 -30 -49 -77 -66 -103 -76 -119 -184 -361 -249 -557 -51 -155 -56
-192 -12 -105 12 25 26 45 31 45 4 0 8 5 8 10 0 13 57 96 108 159 55 68 145
160 931 948 411 411 713 721 702 720 -10 0 -32 -7 -47 -14z"/>
<path d="M5460 2213 c-20 -52 -47 -104 -106 -212 -24 -43 -19 -36 -108 -156
-56 -77 -276 -302 -940 -966 -476 -477 -866 -869 -866 -873 0 -3 461 -6 1025
-6 l1025 0 0 1135 c0 624 -1 1135 -3 1135 -2 0 -14 -26 -27 -57z"/>
</g>
</svg>
