<svg id="Layer_1" data-name="Layer 1" xmlns="http://www.w3.org/2000/svg" xmlns:xlink="http://www.w3.org/1999/xlink" viewBox="0 0 366.3 366.3"><defs><style>.cls-1{fill:#332f3e;}.cls-2{fill:url(#linear-gradient);}.cls-3{fill:url(#linear-gradient-2);}.cls-4{fill:url(#linear-gradient-3);}.cls-5{fill:url(#linear-gradient-4);}.cls-6{fill:url(#linear-gradient-5);}.cls-7{fill:url(#linear-gradient-6);}</style><linearGradient id="linear-gradient" x1="-1666.54" y1="262.91" x2="567.22" y2="262.91" gradientUnits="userSpaceOnUse"><stop offset="0" stop-color="#00a79d"/><stop offset="1" stop-color="#68e76d"/></linearGradient><linearGradient id="linear-gradient-2" x1="-1666.54" y1="150.1" x2="567.22" y2="150.1" xlink:href="#linear-gradient"/><linearGradient id="linear-gradient-3" x1="-1666.54" y1="105.62" x2="567.22" y2="105.62" xlink:href="#linear-gradient"/><linearGradient id="linear-gradient-4" x1="-1666.54" y1="218.5" x2="567.22" y2="218.5" xlink:href="#linear-gradient"/><linearGradient id="linear-gradient-5" x1="-1666.54" y1="221.65" x2="567.22" y2="221.65" xlink:href="#linear-gradient"/><linearGradient id="linear-gradient-6" x1="-1666.54" y1="144.66" x2="567.22" y2="144.66" xlink:href="#linear-gradient"/></defs><rect class="cls-1" width="366.3" height="366.3" rx="43.79"/><g id="qTi4QB"><path class="cls-2" d="M149.09,240.43a43.15,43.15,0,0,1,13.78,11.11,45.75,45.75,0,0,1,10.87,28.53c.1,3.85-1.36,5.32-5.23,5.32H86.13c-3.83,0-5.43-1.53-5.22-5.34q1.43-25.69,23.47-39.05c1.05-.64,1.54-.24,2.21.49,4.2,4.52,9.14,7.87,15.25,9.14,9.62,2,17.75-1,24.75-7.62C147.45,242.2,148.24,241.31,149.09,240.43Z"/><path class="cls-3" d="M217.18,127.72c12.59,14.63,31.75,13.91,43.68-.08a46.47,46.47,0,0,1,24.55,40.1c0,3.32-1.53,4.79-5,4.79H203.2c-2.15,0-4.3.05-6.45,0-2.55-.09-4.21-1.69-4.13-4.21q.85-27.08,24.39-40.59S217.12,127.72,217.18,127.72Z"/><path class="cls-4" d="M239.18,80.91c15.64.41,26.05,14.91,21.42,30.07-2.09,6.84-5.8,12.69-12.12,16.49s-12.73,3.89-18.95,0C219.2,121,214,107.67,217.34,96.87A22.78,22.78,0,0,1,239.18,80.91Z"/><path class="cls-5" d="M150.08,216.69c-.85,10.25-5,18.59-14,24-6.94,4.2-15.5,3-22.17-3.41-6.32-6.1-9.75-13.62-9.21-22.62.65-10.85,9.75-19.86,20.57-20.79a22.74,22.74,0,0,1,24.47,19C150,214.19,150,215.45,150.08,216.69Z"/><path class="cls-6" d="M187.13,264.1c-1,0-1.91.1-2.87.12-3.14.08-5.1-1.39-5.21-3.91s1.87-4.07,5.07-4.32a107.55,107.55,0,0,0,13.33-1.42,72.74,72.74,0,0,0,57.74-60.14,97.65,97.65,0,0,0,.83-10.7c.14-2.77,1.71-4.65,4.14-4.65s4.16,1.89,4.09,4.67c-.73,27.13-11.92,48.92-33.69,65.1C217.71,258.4,203.11,263.29,187.13,264.1Z"/><path class="cls-7" d="M179.48,102.14c1.58,0,2.72-.07,3.85,0a4,4,0,0,1,.11,8c-4.63.46-9.31.6-13.88,1.4-28.78,5.05-52.66,28.82-57.92,57.66a126.37,126.37,0,0,0-1.37,13.34c-.21,2.82-1.66,4.63-4.12,4.62s-4.13-1.85-4.08-4.66c.39-21.48,7.87-40.13,22.77-55.61S158.35,103.29,179.48,102.14Z"/></g></svg>