<svg id="Layer_1" data-name="Layer 1" xmlns="http://www.w3.org/2000/svg" xmlns:xlink="http://www.w3.org/1999/xlink" viewBox="0 0 366.3 366.3"><defs><style>.cls-1{fill:#332f3e;}.cls-2{fill:url(#linear-gradient);}.cls-3{fill:url(#linear-gradient-2);}</style><linearGradient id="linear-gradient" x1="-298.68" y1="183.15" x2="1935.08" y2="183.15" gradientUnits="userSpaceOnUse"><stop offset="0" stop-color="#00a79d"/><stop offset="1" stop-color="#68e76d"/></linearGradient><linearGradient id="linear-gradient-2" x1="-298.68" y1="184.43" x2="1935.08" y2="184.43" xlink:href="#linear-gradient"/></defs><rect class="cls-1" width="366.3" height="366.3" rx="43.79"/><g id="lSvRTn"><path class="cls-2" d="M160.65,130.49h7.47v-2.32q0-22.86,0-45.73c0-3.28,2.33-5.13,5.09-4.1a3.68,3.68,0,0,1,2.44,3.8c0,2.76,0,5.53,0,8.29,0,17.41-.26,34.82.11,52.21.19,9.3-4.33,17-15.13,18.13V276.63a10.89,10.89,0,0,1-5.88,10.12,10.53,10.53,0,0,1-11.67-.54,10.88,10.88,0,0,1-5-9.42q0-56.78,0-113.53v-2.53l-2.43-.38a14.7,14.7,0,0,1-12.53-14.46c-.06-21.25,0-42.49,0-63.74,0-2.49,1.57-4.14,3.76-4.11s3.67,1.66,3.67,4.2q0,22.88,0,45.74v2.48h7.54v-2.32q0-22.77,0-45.53c0-2.56.8-3.83,2.73-4.37a3.61,3.61,0,0,1,4.65,2.94,14.89,14.89,0,0,1,.08,2.22q0,22.26,0,44.52v2.52h7.52V83.25a15.11,15.11,0,0,1,0-2,3.78,3.78,0,0,1,3.65-3.18,3.67,3.67,0,0,1,3.67,2.89,12.06,12.06,0,0,1,.14,2.41q0,22.16,0,44.32Z"/><path class="cls-3" d="M220.66,205.59c-2.63,0-5,0-7.33,0-2.86,0-4.09-1.28-4.37-4.17a300,300,0,0,1-1.16-49.7c1.25-19,4.73-37.43,14.56-54.13a50.32,50.32,0,0,1,14.06-15.7,4.48,4.48,0,0,1,4.7-.78c1.91.82,2,2.47,2,4.21q0,95.81,0,191.62a11.24,11.24,0,0,1-22.48,0q0-34.31,0-68.6Z"/></g></svg>