<svg id="Layer_1" data-name="Layer 1" xmlns="http://www.w3.org/2000/svg" xmlns:xlink="http://www.w3.org/1999/xlink" viewBox="0 0 366.3 366.3"><defs><style>.cls-1{fill:#332f3e;}.cls-2{fill:url(#linear-gradient);}.cls-3{fill:url(#linear-gradient-2);}.cls-4{fill:url(#linear-gradient-3);}</style><linearGradient id="linear-gradient" x1="-754.63" y1="195.9" x2="1479.12" y2="195.9" gradientUnits="userSpaceOnUse"><stop offset="0" stop-color="#00a79d"/><stop offset="1" stop-color="#68e76d"/></linearGradient><linearGradient id="linear-gradient-2" x1="-754.63" y1="251.58" x2="1479.12" y2="251.58" xlink:href="#linear-gradient"/><linearGradient id="linear-gradient-3" x1="-754.63" y1="110.75" x2="1479.12" y2="110.75" xlink:href="#linear-gradient"/></defs><rect class="cls-1" width="366.3" height="366.3" rx="43.79"/><g id="wup3m2"><path class="cls-2" d="M204.58,193.86c-.34,5.86-.69,11.68-1,17.5-.6,10.58-1.17,21.15-1.81,31.73a7.16,7.16,0,0,1-7.17,6.91q-11.41.12-22.83,0a7.08,7.08,0,0,1-7.1-6.95q-1.38-23.24-2.7-46.46c0-.52-.09-1-.08-1.55,0-1-.43-1.34-1.42-1.49-3.34-.5-6.66-1.08-10-1.71-3.06-.59-5-2.89-4.61-5.85.94-7.89,1.71-15.83,3.11-23.65a25.48,25.48,0,0,1,21-20.24,52.13,52.13,0,0,1,7.71-.36c5.6,0,11.22-.07,16.81.22a25.08,25.08,0,0,1,22.69,18.91c1.19,4.86,1.48,9.94,2.12,14.93q.63,4.94,1.1,9.9a5.26,5.26,0,0,1-4.61,6.15c-3.31.63-6.64,1.16-10,1.74C205.46,193.66,205.08,193.75,204.58,193.86Z"/><path class="cls-3" d="M151.16,223.36c.28,4.75.55,9.25.81,13.63-3.69,1.26-7.34,2.27-10.79,3.76a42.78,42.78,0,0,0-8.48,4.76c-3.91,2.9-3.84,5.72,0,8.74,5,3.93,10.87,6.06,16.9,7.71,13.48,3.69,27.25,4.62,41.17,4a110.14,110.14,0,0,0,28.52-4.71A87.14,87.14,0,0,0,231.39,256a15.4,15.4,0,0,0,4.35-3.55c1.74-1.94,1.72-3.73-.25-5.41a32.51,32.51,0,0,0-7.17-4.92,117.9,117.9,0,0,0-12-4.46c-1.12-.38-1.55-.77-1.46-2,.31-4,.51-8.1.77-12.54,4.18,1.28,8.2,2.35,12.1,3.75a47.28,47.28,0,0,1,15.11,8.29c5.27,4.51,8.43,10,7.46,17.15-.69,5.09-3.63,9-7.4,12.2-5.9,5.06-12.92,7.95-20.25,10.17A134,134,0,0,1,185.54,280a143.41,143.41,0,0,1-36.93-3.91c-7.63-1.9-15-4.48-21.64-8.86a28.5,28.5,0,0,1-7.71-7.26c-4.7-6.65-4.56-14.64.62-21a29.77,29.77,0,0,1,5.34-5.06C132.86,228.27,141.73,225.53,151.16,223.36Z"/><path class="cls-4" d="M158.7,110.77a24.47,24.47,0,1,1,24.48,24.43A24.43,24.43,0,0,1,158.7,110.77Z"/></g></svg>