<svg id="Layer_1" data-name="Layer 1" xmlns="http://www.w3.org/2000/svg" xmlns:xlink="http://www.w3.org/1999/xlink" viewBox="0 0 366.3 366.3"><defs><style>.cls-1{fill:#332f3e;}.cls-2{fill:url(#linear-gradient);}.cls-3{fill:url(#linear-gradient-2);}.cls-4{fill:url(#linear-gradient-3);}</style><linearGradient id="linear-gradient" x1="-1210.59" y1="183.15" x2="1023.17" y2="183.15" gradientUnits="userSpaceOnUse"><stop offset="0" stop-color="#00a79d"/><stop offset="1" stop-color="#68e76d"/></linearGradient><linearGradient id="linear-gradient-2" x1="-1210.59" y1="186.39" x2="1023.17" y2="186.39" xlink:href="#linear-gradient"/><linearGradient id="linear-gradient-3" x1="-1210.59" y1="186.3" x2="1023.17" y2="186.3" xlink:href="#linear-gradient"/></defs><rect class="cls-1" width="366.3" height="366.3" rx="43.79"/><g id="HpsvXg"><path class="cls-2" d="M94.93,155a76.37,76.37,0,0,1-8.45-.06c-5.45-.62-8.47-5.76-6.6-11,2.56-7.17,5.19-14.3,7.79-21.44q4.56-12.54,9.13-25.06c1.6-4.4,4.33-6.32,9.06-6.32h52q51.22,0,102.46,0c2.59,0,5.07.37,6.91,2.38a10.17,10.17,0,0,1,2.08,3.18q8.57,23.31,17,46.66c2.29,6.32-1.47,11.78-8.19,11.88-2.07,0-4.15,0-6.44,0V269.7c0,4.09-1.43,5.53-5.54,5.53H100.46c-4.2,0-5.53-1.33-5.53-5.48V155ZM207.49,260.46h49.15v-105H207.49Zm-97.93-105v62h83v-62Z"/><path class="cls-3" d="M125.26,204.75a5.61,5.61,0,0,1-4.09-2.94,3.77,3.77,0,0,1,.45-4.45q5-6.51,10-13c3.67-4.77,7.32-9.56,11-14.3,2.3-2.94,6-2.63,7.67.59,1,1.86.31,3.4-.86,4.91q-8,10.35-16,20.72c-1.53,2-2.95,4.1-4.64,5.95A20.51,20.51,0,0,1,125.26,204.75Z"/><path class="cls-4" d="M152.28,204.55a4.88,4.88,0,0,1-3.95-2.66,3.63,3.63,0,0,1,.07-4,11.16,11.16,0,0,1,.74-1.06q10.22-13.29,20.44-26.56c2.43-3.15,6.22-2.9,7.9.47.94,1.9.18,3.41-1,4.9q-10.14,13.13-20.25,26.26a4.67,4.67,0,0,1-1.08,1.24C154.26,203.69,153.26,204.09,152.28,204.55Z"/></g></svg>