<svg xmlns="http://www.w3.org/2000/svg" xmlns:xlink="http://www.w3.org/1999/xlink" viewBox="0 0 433.62 438.92"><defs><style>.cls-1{isolation:isolate;}.cls-2{opacity:0.24;mix-blend-mode:screen;}.cls-3,.cls-4,.cls-5{fill-rule:evenodd;}.cls-3{fill:url(#linear-gradient);}.cls-4{fill:url(#linear-gradient-3);}.cls-5{fill:url(#linear-gradient-4);}</style><linearGradient id="linear-gradient" x1="75.92" y1="443.64" x2="433.49" y2="348.29" gradientUnits="userSpaceOnUse"><stop offset="0" stop-color="#332f3e" stop-opacity="0"/><stop offset="0.14" stop-color="#332f3e" stop-opacity="0.38"/><stop offset="0.31" stop-color="#332f3e" stop-opacity="0.72"/><stop offset="0.47" stop-color="#332f3e" stop-opacity="0.93"/><stop offset="0.62" stop-color="#332f3e"/></linearGradient><linearGradient id="linear-gradient-3" x1="29.08" y1="268.02" x2="386.66" y2="172.66" xlink:href="#linear-gradient"/><linearGradient id="linear-gradient-4" x1="-12.99" y1="110.23" x2="344.58" y2="14.88" xlink:href="#linear-gradient"/></defs><g class="cls-1"><g id="Layer_1" data-name="Layer 1"><g class="cls-2"><path class="cls-3" d="M433.62,257.59V438.92H269.78l132-132a139.05,139.05,0,0,0,31.86-49.36Z"/><path class="cls-3" d="M433.62,257.59V438.92H269.78l132-132a139.05,139.05,0,0,0,31.86-49.36Z"/><path class="cls-4" d="M237.1,0l-35,35L65.85,171.26a83,83,0,0,0,0,117h0a83,83,0,0,0,117,0l99.57-99.57A28.67,28.67,0,1,1,323,229.24L223.4,328.81a140.38,140.38,0,0,1-198.09,0h0c-2.09-2.09-4.08-4.23-6-6.41A220.16,220.16,0,0,0,190,437.66l35-35L361.22,266.41a83.05,83.05,0,0,0,0-117h0a83.05,83.05,0,0,0-117,0L144.63,249a28.66,28.66,0,1,1-40.54-40.53l99.57-99.57a140.39,140.39,0,0,1,198.1,0h0c2.08,2.08,4.07,4.22,6,6.4A220.17,220.17,0,0,0,237.1,0Z"/><path class="cls-5" d="M25.31,130.72,147.05,9A220.48,220.48,0,0,0,0,165.35,138.78,138.78,0,0,1,25.31,130.72Z"/></g></g></g></svg>