<svg id="Layer_1" data-name="Layer 1" xmlns="http://www.w3.org/2000/svg" xmlns:xlink="http://www.w3.org/1999/xlink" viewBox="0 0 68.18 69.02"><defs><style>.cls-1,.cls-2,.cls-3{fill-rule:evenodd;}.cls-1{fill:url(#linear-gradient);}.cls-2{fill:url(#linear-gradient-3);}.cls-3{fill:url(#linear-gradient-4);}</style><linearGradient id="linear-gradient" x1="-4.67" y1="59.37" x2="271.12" y2="41.91" gradientUnits="userSpaceOnUse"><stop offset="0" stop-color="#00a79d"/><stop offset="1" stop-color="#68e76d"/></linearGradient><linearGradient id="linear-gradient-3" x1="-6.09" y1="36.92" x2="269.7" y2="19.46" xlink:href="#linear-gradient"/><linearGradient id="linear-gradient-4" x1="-7.48" y1="14.91" x2="268.3" y2="-2.56" xlink:href="#linear-gradient"/></defs><path class="cls-1" d="M68.18,40.5V69H42.42L63.17,48.27a21.69,21.69,0,0,0,5-7.77Z"/><path class="cls-1" d="M68.18,40.5V69H42.42L63.17,48.27a21.69,21.69,0,0,0,5-7.77Z"/><path class="cls-2" d="M37.28,0,31.77,5.51,10.35,26.93a13.06,13.06,0,0,0,0,18.4h0a13.06,13.06,0,0,0,18.4,0L44.41,29.67a4.51,4.51,0,0,1,6.38,6.38L35.13,51.7A22.08,22.08,0,0,1,4,51.7H4c-.33-.32-.64-.66-1-1A34.64,34.64,0,0,0,29.87,68.82l5.51-5.51L56.8,41.89a13.06,13.06,0,0,0,0-18.4h0a13.06,13.06,0,0,0-18.4,0L22.74,39.15a4.51,4.51,0,0,1-6.37-6.38L32,17.12a22.08,22.08,0,0,1,31.15,0h0c.33.32.64.66,1,1A34.63,34.63,0,0,0,37.28,0Z"/><path class="cls-3" d="M4,20.55,23.12,1.41A34.67,34.67,0,0,0,0,26,22.08,22.08,0,0,1,4,20.55Z"/></svg>