<svg id="Layer_1" data-name="Layer 1" xmlns="http://www.w3.org/2000/svg" viewBox="0 0 45.39 45.41"><defs><style>.cls-1{fill:#332f3e;}</style></defs><g id="Q0b4o8"><path class="cls-1" d="M45.39,22.72A22.7,22.7,0,1,1,22.73,0,22.68,22.68,0,0,1,45.39,22.72ZM25,25h9.13a2.32,2.32,0,1,0-.07-4.62H25V11.23a2.74,2.74,0,0,0,0-.5,2.31,2.31,0,0,0-2.47-1.88,2.27,2.27,0,0,0-2.12,2.33v8.76c0,.15,0,.29,0,.46H11.8c-.29,0-.59,0-.88,0A2.3,2.3,0,0,0,8.85,23a2.33,2.33,0,0,0,2.45,2h9.1v9.17a2.31,2.31,0,1,0,4.62,0V25Z"/></g></svg>