<svg id="Layer_1" data-name="Layer 1" xmlns="http://www.w3.org/2000/svg" viewBox="0 0 93.48 132.44"><defs><style>.cls-1{fill:#332f3e;}</style></defs><g id="JIPuPm"><path class="cls-1" d="M72,36.41c5.84,0,11.68,0,17.52,0a4.06,4.06,0,0,1,3.93,4.29q0,10.67,0,21.32v65.74q0,4.65-4.66,4.65-42.18,0-84.38,0A4.45,4.45,0,0,1,0,128Q.06,84.42,0,40.89a4.13,4.13,0,0,1,4.5-4.51c5.62,0,11.23,0,16.85,0l0,0c0,4.13,0,8.25,0,12.37a4,4,0,0,0,4.21,4,3.92,3.92,0,0,0,4.07-4c0-4.13,0-8.25,0-12.38l0,0H63.8l0,0c0,.4.07.81.07,1.21,0,3.72,0,7.44,0,11.15a4,4,0,0,0,4,4,3.88,3.88,0,0,0,4.28-3.62c.06-4.24,0-8.47,0-12.71Z"/><path class="cls-1" d="M21.38,36.41c0-3.76,0-7.52,0-11.27a25.37,25.37,0,0,1,50.22-4.85,21,21,0,0,1,.46,3.86c0,4.09,0,8.18,0,12.26l0,0H63.77l0,0c0-3.83.08-7.66,0-11.49a17.08,17.08,0,0,0-34.15.45l-.06,11,0,0H21.35Z"/></g></svg>