<svg id="Layer_1" data-name="Layer 1" xmlns="http://www.w3.org/2000/svg" viewBox="0 0 167.69 106.84"><defs><style>.cls-1{fill:#332f3e;}</style></defs><g id="ufgmAZ"><path class="cls-1" d="M81,106.84c-7.83,0-18-2.43-27.58-6.86C32.4,90.27,15.4,75.61,1.7,57l-.26-.39c-1.9-2.81-1.94-3.55,0-6.32C11.24,36.35,23.56,25,37.66,15.58A92.9,92.9,0,0,1,69.05,1.68C84.9-1.89,100.11.37,114.67,7.13c20.82,9.68,37.66,24.25,51.2,42.71,2.42,3.28,2.44,3.94,0,7.21-15.32,20.54-34.21,36.55-58.48,45.6C99.82,105.47,92,106.83,81,106.84Zm2.75-91.56A38.15,38.15,0,1,0,122,53.14,38.21,38.21,0,0,0,83.79,15.28Z"/><path class="cls-1" d="M106.71,53.45A22.89,22.89,0,1,1,83.82,30.57,22.91,22.91,0,0,1,106.71,53.45Z"/></g></svg>