<svg id="Layer_1" data-name="Layer 1" xmlns="http://www.w3.org/2000/svg" viewBox="0 0 33.22 45.41"><defs><style>.cls-1{fill:#332f3e;}</style></defs><g id="_5SyfoN" data-name="5SyfoN"><path class="cls-1" d="M33.22,16.29A16,16,0,0,1,31.92,22,60.06,60.06,0,0,1,26.43,32.4a144.26,144.26,0,0,1-9,12.49,1,1,0,0,1-1.72,0A119.42,119.42,0,0,1,3.66,27.05,63.19,63.19,0,0,1,1,21.25,13.94,13.94,0,0,1,1.61,9.56a16,16,0,0,1,13-9.43A16.52,16.52,0,0,1,33,14.1C33.1,14.82,33.14,15.56,33.22,16.29ZM16.63,23.61a7,7,0,1,0-7.06-6.92A7,7,0,0,0,16.63,23.61Z"/></g></svg>