<svg id="Layer_1" data-name="Layer 1" xmlns="http://www.w3.org/2000/svg" viewBox="0 0 45.41 45.41"><defs><style>.cls-1{fill:#332f3e;}</style></defs><g id="zD1b34"><path class="cls-1" d="M45.41,22.7A22.71,22.71,0,1,1,22.7,0,22.77,22.77,0,0,1,45.41,22.7ZM16.9,28.87H28.48c0-.15.06-.29.08-.43a50.17,50.17,0,0,0,0-11.49c0-.34-.15-.45-.51-.45-3.56,0-7.12,0-10.68,0l-.47,0A49,49,0,0,0,16.9,28.87Zm15.74,0h.48c2.21,0,4.42,0,6.63,0a.52.52,0,0,0,.59-.42,18.36,18.36,0,0,0,0-11.56.51.51,0,0,0-.58-.43c-2.22,0-4.45,0-6.67,0l-.44,0A51.62,51.62,0,0,1,32.64,28.9Zm-19.88,0a51,51,0,0,1,0-12.34l-.18,0H5.47c-.27,0-.32.15-.38.34a18.2,18.2,0,0,0,0,11.71.42.42,0,0,0,.5.34h7.17Zm15,4.14h-10c0,.1,0,.17,0,.23a20.26,20.26,0,0,0,2.44,6,7.74,7.74,0,0,0,1.24,1.44,1.73,1.73,0,0,0,2.58,0,10.11,10.11,0,0,0,1.33-1.59,17.65,17.65,0,0,0,2-4.61C27.46,34,27.58,33.56,27.73,33Zm-10-20.69h10a21,21,0,0,0-2-5.43A12.23,12.23,0,0,0,24.1,4.8a1.77,1.77,0,0,0-2.79,0,9.38,9.38,0,0,0-1.26,1.55A20.34,20.34,0,0,0,17.68,12.35ZM7.31,33c1.21,2.41,6.49,6.65,8.4,6.82-.41-1.05-.87-2.11-1.24-3.2s-.64-2.23-.94-3.36c-.07-.26-.22-.27-.43-.27H7.31Zm22.34,6.89a19,19,0,0,0,8.49-6.86H32c-.34,1.18-.63,2.34-1,3.47S30.11,38.75,29.65,39.91Zm8.49-27.56a18.5,18.5,0,0,0-8.48-6.8,33.16,33.16,0,0,1,2.28,6.8Zm-30.89,0c2,0,3.93,0,5.83,0,.32,0,.41-.11.48-.4A28.15,28.15,0,0,1,15.7,5.73a1.39,1.39,0,0,0,.1-.26A19,19,0,0,0,7.25,12.38Z"/></g></svg>