<svg id="Layer_1" data-name="Layer 1" xmlns="http://www.w3.org/2000/svg" viewBox="0 0 76.67 132.44"><defs><style>.cls-1{fill:#332f3e;}</style></defs><g id="nppwd9"><path class="cls-1" d="M48.73,52.62c-1,4.61-1.91,9-2.84,13.39-.66,3.13-1.27,6.28-2,9.4a1.49,1.49,0,0,0,.5,1.62c2.6,2.49,5.1,5.07,7.76,7.5a31,31,0,0,1,9.55,16.55c1.65,7.31,3.55,14.56,5.32,21.84a7.53,7.53,0,0,1-5.68,9.31,7.37,7.37,0,0,1-8.93-5.72q-2.8-11.43-5.62-22.85a14.35,14.35,0,0,0-4.06-7.12c-2.86-2.73-5.67-5.5-8.5-8.25l-1.09-1c-.31,2-.62,3.8-.86,5.6a37.17,37.17,0,0,1-3.23,10.84Q23.4,115.8,17.69,127.86a7.66,7.66,0,0,1-10.13,3.89A7.59,7.59,0,0,1,4,121.61c2.3-5,4.68-10,7-14.93,1.31-2.79,2.52-5.64,4-8.35,1.87-3.51,2.4-7.32,2.95-11.14,1-6.72,2-13.44,2.94-20.17.73-5.3,1.33-10.62,2-15.93a7.83,7.83,0,0,0,0-.85c-.4.35-.68.59-1,.85-4.44,4.1-7.33,9.28-10.11,14.54a6.28,6.28,0,0,1-9,2.33,6,6,0,0,1-2.2-7.73c4.27-8.83,9.7-16.76,17.79-22.6a52.28,52.28,0,0,1,10.77-6.11,11.86,11.86,0,0,1,5.49-.88c2.84.23,5.69.42,8.54.55a7.87,7.87,0,0,1,5.74,2.51c2.88,3.18,5.78,6.37,8.46,9.72A44.15,44.15,0,0,0,68.5,53.57c1.85,1.16,3.69,2.35,5.48,3.6a6,6,0,0,1,2.51,6.37,5.92,5.92,0,0,1-5.13,4.8,6.29,6.29,0,0,1-3.82-.63C61.39,64,55.28,60.16,50.49,54.65Z"/><path class="cls-1" d="M54.37,13.81A13.77,13.77,0,1,1,40.6,0,13.77,13.77,0,0,1,54.37,13.81Z"/></g></svg>