<svg id="Layer_1" data-name="Layer 1" xmlns="http://www.w3.org/2000/svg" viewBox="0 0 132.45 132.44"><defs><style>.cls-1{fill:#332f3e;}</style></defs><g id="eKg37n"><path class="cls-1" d="M66.15,132.44C29.09,132.28-.18,102.53,0,65.2.17,29.32,30.06-.08,66.27,0c37.05.08,66.36,29.83,66.18,67.18C132.28,103,102.17,132.59,66.15,132.44Zm-7.52-104c0,2-.06,3.79,0,5.58.05,1.07-.42,1.39-1.35,1.8a39.35,39.35,0,0,0-7.54,3.85C41.52,45.8,40.47,63,53.3,67.93c3.57,1.38,7.29,2.36,10.92,3.58,2.87.95,5.76,1.88,8.55,3a4.4,4.4,0,0,1,2.84,4.39c0,3-2.35,5.21-6,5.63-6,.69-11.37-1-16.41-4.13-.51-.32-1-.62-1.6-1-2.5,3.33-4.91,6.51-7.36,9.76A33.55,33.55,0,0,0,57,95.14c1.46.3,1.76.94,1.7,2.24-.08,2.14,0,4.28,0,6.43H72c0-2,.08-4,0-5.88-.07-1.4.26-2.1,1.82-2.34a20,20,0,0,0,8.72-3.91c7.89-5.81,9.71-22.47-2.16-28a115.2,115.2,0,0,0-10.93-4c-3.1-1.07-6.29-1.89-9.32-3.09a4.57,4.57,0,0,1-3.22-5.26,4.48,4.48,0,0,1,3.86-4.2,21.34,21.34,0,0,1,7.51-.18c3.09.6,6,2,9.18,3.09,2-3.11,4.12-6.48,6.29-9.91a22.77,22.77,0,0,0-10.21-4.27c-1.15-.15-1.6-.59-1.54-1.78.1-1.83,0-3.66,0-5.55Z"/></g></svg>