<svg id="Layer_1" data-name="Layer 1" xmlns="http://www.w3.org/2000/svg" viewBox="0 0 119.41 119.58"><defs><style>.cls-1{fill:#332f3e;}</style></defs><g id="GeZRUF"><path class="cls-1" d="M88.11,119.58a14.12,14.12,0,0,1-7-1.83c-6.58-3.63-13.17-7.22-19.72-10.9a2.81,2.81,0,0,0-3.15,0C51.81,110.46,45.39,114,39,117.5c-9.92,5.45-21.07-.61-21.67-11.92a36.4,36.4,0,0,1,.89-7.51c1.06-6.58,2.19-13.15,3.31-19.72a2.42,2.42,0,0,0-1-2.21Q13.12,68.54,5.69,60.9A31.61,31.61,0,0,1,3,57.9a14.43,14.43,0,0,1,9.57-23.16c7.43-1.13,14.85-2.32,22.27-3.45a2.39,2.39,0,0,0,1.88-1.62q5-10.73,10.09-21.41C49.38,2.92,53.63,0,59.56,0S69.82,3,72.39,8.37Q77.49,19,82.47,29.78a2.52,2.52,0,0,0,2.18,1.55c7.54,1.13,15.09,2.23,22.61,3.49a13.53,13.53,0,0,1,11.31,9.6,14.12,14.12,0,0,1-3.52,15.07Q107.06,67.77,99,76A3.12,3.12,0,0,0,98,79c1.41,8,2.71,16.1,4.09,24.14C103.47,111.45,96.62,119.54,88.11,119.58ZM59.84,93.25A14,14,0,0,1,66.55,95c6.81,3.75,13.62,7.52,20.46,11.23a2.06,2.06,0,0,0,1.77.1,2,2,0,0,0,.57-1.68c-1.21-7.49-2.32-15-3.79-22.45-1.26-6.37.31-11.54,5-16.06,5.22-5,10.16-10.35,15.23-15.53a2.29,2.29,0,0,0,.87-2.34c-.3-1-1.16-1.13-2-1.26-7.12-1.11-14.23-2.28-21.37-3.29-5.21-.74-9.17-3.25-11.47-8C68.31,28.61,65,21.37,61.62,14.14a2,2,0,0,0-1.85-1.26c-.89-.06-1.26.58-1.58,1.27Q53.12,24.91,48.05,35.67a13.82,13.82,0,0,1-9.86,8.07c-3.17.71-6.41,1.1-9.63,1.61-4.66.74-9.32,1.44-14,2.19-1.79.29-2.29,1.77-1.13,3.16.2.23.43.44.64.66L29.85,67.51a15.78,15.78,0,0,1,4.3,8,20.47,20.47,0,0,1-.28,7.76Q32,93.68,30.35,104.12a2.9,2.9,0,0,0,.57,2.26c.33.3,1.51,0,2.15-.38,6.67-3.62,13.3-7.3,20-11A14.06,14.06,0,0,1,59.84,93.25Z"/></g></svg>