<svg id="Layer_1" data-name="Layer 1" xmlns="http://www.w3.org/2000/svg" viewBox="0 0 111.85 132.44"><defs><style>.cls-1{fill:#332f3e;}</style></defs><g id="AzPE8A"><path class="cls-1" d="M108.21,106.36H3.85c0-.66,0-1.26,0-1.86.07-5.36-.19-10.75.29-16.07,1.3-14.24,7.67-26,18.58-35.16A50.54,50.54,0,0,1,48.64,41.78l.85-.17V28.21h13c0,.49.08,1,.08,1.42,0,3.61,0,7.21,0,10.82,0,.94.27,1.25,1.22,1.39A50.43,50.43,0,0,1,91.93,55.59,51.22,51.22,0,0,1,108.2,92.83C108.28,97.3,108.21,101.78,108.21,106.36Z"/><path class="cls-1" d="M108.13,119.55v12.89H3.92V119.55Z"/><path class="cls-1" d="M85,35.77,104.6,22.71l7.25,10.85L92.25,46.63Z"/><path class="cls-1" d="M26.73,35.58,19.55,46.42,0,33.46,7.18,22.63Z"/><path class="cls-1" d="M49.17,19.59,36.79,23.71c-2.19-6.55-4.33-13-6.52-19.55L42.64,0Z"/><path class="cls-1" d="M62.85,19.56C65,13,67.18,6.57,69.37,0L81.75,4.12,75.24,23.68Z"/></g></svg>