<svg id="Layer_1" data-name="Layer 1" xmlns="http://www.w3.org/2000/svg" viewBox="0 0 119.6 104.81"><defs><style>.cls-1{fill:#332f3e;}</style></defs><g id="bIOXil"><path class="cls-1" d="M60.67,0c13.88.12,27.5,3.91,39.48,12.74,9,6.64,15.55,15.16,18.24,26.18,3.08,12.64.18,24.12-7.51,34.43C104,82.6,94.72,88.66,84,92.55a69.81,69.81,0,0,1-31.71,3.7c-3.5-.38-7-1.2-10.45-1.77a3.1,3.1,0,0,0-1.59.21c-7.53,3.19-15,6.42-22.55,9.6-4.32,1.82-8.84-1.4-8.28-5.85.15-1.17.32-2.34.48-3.5.77-5.44,1.57-10.87,2.28-16.31a2.18,2.18,0,0,0-.58-1.57A42.55,42.55,0,0,1,1,57c-2.76-12.58.23-23.88,7.91-34C15.92,13.78,25.28,7.8,36.09,4A72.55,72.55,0,0,1,60.67,0ZM22.34,89.71c5.31-2.26,10.37-4.37,15.39-6.55a7.68,7.68,0,0,1,5.34-.34,61.25,61.25,0,0,0,36-.82c8.51-2.81,15.92-7.36,21.67-14.37,8.29-10.13,9.5-22.82,3.18-33.92A37.39,37.39,0,0,0,90.34,20c-15.9-9.45-32.73-10.71-50.16-5.17a43.82,43.82,0,0,0-21,13.82C12.43,36.78,9.87,46,12.75,56.34a32.77,32.77,0,0,0,9.39,14.88,6.11,6.11,0,0,1,2,5.49c-.19,1.37-.41,2.73-.6,4.1Z"/></g></svg>