<svg id="Layer_1" data-name="Layer 1" xmlns="http://www.w3.org/2000/svg" xmlns:xlink="http://www.w3.org/1999/xlink" viewBox="0 0 141.76 131.65"><defs><style>.cls-1{fill:url(#linear-gradient);}.cls-2{fill:url(#linear-gradient-2);}.cls-3{fill:url(#linear-gradient-3);}.cls-4{fill:url(#linear-gradient-4);}.cls-5{fill:url(#linear-gradient-5);}.cls-6{fill:url(#linear-gradient-6);}.cls-7{fill:url(#linear-gradient-7);}.cls-8{fill:url(#linear-gradient-8);}.cls-9{fill:url(#linear-gradient-9);}.cls-10{fill:url(#linear-gradient-10);}.cls-11{fill:url(#linear-gradient-11);}.cls-12{fill:url(#linear-gradient-12);}.cls-13{fill:url(#linear-gradient-13);}.cls-14{fill:url(#linear-gradient-14);}.cls-15{fill:url(#linear-gradient-15);}</style><linearGradient id="linear-gradient" x1="-45.92" y1="15.77" x2="199.81" y2="11.3" gradientUnits="userSpaceOnUse"><stop offset="0" stop-color="#00a79d"/><stop offset="1" stop-color="#68e76d"/></linearGradient><linearGradient id="linear-gradient-2" x1="-45.88" y1="17.99" x2="199.85" y2="13.52" xlink:href="#linear-gradient"/><linearGradient id="linear-gradient-3" x1="-44.02" y1="120.1" x2="201.71" y2="115.63" xlink:href="#linear-gradient"/><linearGradient id="linear-gradient-4" x1="-44.06" y1="117.87" x2="201.67" y2="113.41" xlink:href="#linear-gradient"/><linearGradient id="linear-gradient-5" x1="-45.66" y1="29.81" x2="200.07" y2="25.34" xlink:href="#linear-gradient"/><linearGradient id="linear-gradient-6" x1="-45.51" y1="38.1" x2="200.22" y2="33.63" xlink:href="#linear-gradient"/><linearGradient id="linear-gradient-7" x1="-45.53" y1="36.99" x2="200.2" y2="32.53" xlink:href="#linear-gradient"/><linearGradient id="linear-gradient-8" x1="-45.52" y1="37.68" x2="200.21" y2="33.22" xlink:href="#linear-gradient"/><linearGradient id="linear-gradient-9" x1="-45.11" y1="60.33" x2="200.62" y2="55.87" xlink:href="#linear-gradient"/><linearGradient id="linear-gradient-10" x1="-44.96" y1="68.48" x2="200.77" y2="64.01" xlink:href="#linear-gradient"/><linearGradient id="linear-gradient-11" x1="-44.84" y1="75.18" x2="200.89" y2="70.71" xlink:href="#linear-gradient"/><linearGradient id="linear-gradient-12" x1="-44.62" y1="87.06" x2="201.11" y2="82.59" xlink:href="#linear-gradient"/><linearGradient id="linear-gradient-13" x1="-44.43" y1="97.76" x2="201.3" y2="93.29" xlink:href="#linear-gradient"/><linearGradient id="linear-gradient-14" x1="-44.41" y1="98.87" x2="201.32" y2="94.4" xlink:href="#linear-gradient"/><linearGradient id="linear-gradient-15" x1="-44.35" y1="102.11" x2="201.38" y2="97.64" xlink:href="#linear-gradient"/></defs><polyline class="cls-1" points="0 0 0 29.68 9.77 29.68 9.77 9.77 29.69 9.77 29.69 0 0 0"/><polyline class="cls-2" points="141.76 0 112.08 0.01 112.08 9.77 131.99 9.77 131.99 29.69 141.76 29.69 141.76 0"/><polyline class="cls-3" points="141.76 131.65 141.76 101.96 131.99 101.97 131.99 121.87 112.08 121.87 112.08 131.65 141.76 131.65"/><polyline class="cls-4" points="0 131.65 29.68 131.64 29.68 121.88 9.77 121.88 9.77 101.96 0 101.96 0 131.65"/><rect class="cls-5" x="59.48" y="24.03" width="7.6" height="7.6"/><path class="cls-6" d="M105.07,24H89.88v22.8h22.79V24h-7.6m-7.59,7.6h7.59v7.6H97.48Z"/><path class="cls-7" d="M44.29,46.83h7.59V24H29.09v22.8h15.2m-7.6-15.2h7.6v7.6h-7.6Z"/><polyline class="cls-8" points="82.28 39.23 82.28 24.03 74.68 24.03 74.68 31.63 67.08 31.63 67.08 39.23 74.68 39.23 74.68 46.83 82.28 46.83 82.28 39.23"/><polyline class="cls-9" points="67.08 62.02 74.68 62.02 74.68 69.62 82.28 69.62 82.28 54.43 74.68 54.43 74.68 46.83 59.48 46.83 59.48 54.43 67.08 54.43 67.08 62.02"/><polyline class="cls-10" points="105.08 62.02 97.48 62.02 97.48 54.43 89.88 54.43 89.88 69.62 82.28 69.62 82.28 77.22 97.48 77.22 97.48 69.62 105.08 69.62 105.08 77.22 112.67 77.22 112.67 54.43 105.08 54.43 105.08 62.02"/><polyline class="cls-11" points="67.08 77.22 74.68 77.22 74.68 69.62 67.08 69.62 67.08 62.02 59.48 62.02 59.48 69.62 44.29 69.62 44.29 62.02 59.48 62.02 59.48 54.43 36.69 54.43 36.69 69.62 29.09 69.62 29.09 77.22 59.48 77.22 59.48 92.42 67.08 92.42 67.08 77.22"/><polyline class="cls-12" points="74.68 84.82 74.68 92.42 82.28 92.42 82.28 77.22 74.68 77.22 74.68 84.82"/><path class="cls-13" d="M36.69,84.82h-7.6v22.8H51.88V84.82H36.69m0,7.6h7.6V100h-7.6Z"/><path class="cls-14" d="M97.48,84.82h-7.6v22.8h22.79V84.82H97.48m0,7.6h7.59V100H97.48Z"/><polyline class="cls-15" points="67.08 100.02 59.48 100.02 59.48 107.62 74.68 107.62 74.68 92.42 67.08 92.42 67.08 100.02"/></svg>